<?xml version="1.0" standalone="no"?>
<!DOCTYPE svg PUBLIC "-//W3C//DTD SVG 20010904//EN"
 "http://www.w3.org/TR/2001/REC-SVG-20010904/DTD/svg10.dtd">
<svg version="1.0" xmlns="http://www.w3.org/2000/svg"
 width="308.7612359841165" height="304.915625" viewBox="0 0 2000.000000 2350.000000"
 preserveAspectRatio="xMidYMid meet">

<g transform="translate(0.000000,2350.000000) scale(0.100000,-0.100000)"
fill="#ff4a3f" stroke="none">
<path d="M530 11750 l0 -11170 9470 0 9470 0 0 11170 0 11170 -9470 0 -9470 0
0 -11170z m17850 0 l0 -10070 -8380 0 -8380 0 0 10070 0 10070 8380 0 8380 0
0 -10070z"/>
<path d="M3260 11750 l0 -8430 895 0 895 0 0 2675 0 2674 2603 4 c1823 3 2641
7 2732 15 72 6 213 19 315 28 102 9 195 17 207 18 18 1 340 -446 1938 -2694
1054 -1482 1922 -2701 1929 -2708 9 -9 214 -12 983 -10 l972 3 -2055 2884
c-1130 1586 -2051 2887 -2047 2891 4 4 40 18 78 30 120 39 383 140 540 208
1192 515 2094 1330 2628 2374 417 816 617 1771 593 2833 -9 397 -32 660 -87
990 -92 553 -238 1017 -469 1490 -251 514 -565 945 -987 1355 -1002 976 -2372
1558 -4094 1740 -543 57 -304 54 -4086 57 l-3483 4 0 -8431z m6955 6872 c72
-6 202 -19 290 -27 1764 -175 3000 -852 3665 -2009 234 -408 400 -922 469
-1458 56 -424 61 -913 16 -1318 -90 -797 -353 -1461 -798 -2014 -101 -126
-320 -351 -452 -465 -740 -639 -1767 -1012 -3075 -1116 -385 -30 -772 -35
-3017 -35 l-2263 0 0 4230 0 4231 2518 -4 c1762 -3 2556 -7 2647 -15z"/>
</g>
</svg>
